<?xml version="1.0" encoding="UTF-8"?>
<svg width="32" height="32" aria-hidden="true" role="img" version="1.1"
     viewBox="0 0 255 255" xmlns="http://www.w3.org/2000/svg">
    <g transform="translate(7.2698 1.0836)" stroke="#000">
        <g fill="#f9f9f9">
            <rect transform="matrix(.98333 .18183 -.21497 .97662 0 0)" x="83.767" y="1.139" width="154.64"
                  height="201.41" ry="12.334" stroke-width="8.5658"/>
            <rect transform="matrix(.99533 .096517 -.11467 .9934 0 0)" x="50.522" y="7.7868" width="154.99"
                  height="200.87" ry="12.302" stroke-width="8.564"/>
            <rect x="14.434" y="13.5" width="155.13" height="200.66" ry="12.289" stroke-width="8.5633"/>
        </g>
        <g transform="scale(1.0097 .99043)" stroke-linejoin="round" stroke-width="1.0297">
            <path d="m46.51 89.232q2.3476-1.3592 4.8188-3.3361 2.5948-1.977 4.9424-4.201 2.3476-2.3476 4.3246-4.6953 2.1005-2.4712 3.4597-4.8188h8.155v85.627h-10.626v-68.823q-2.1005 2.2241-4.9424 4.201-2.7183 1.977-5.8073 3.7068z"/>
            <path d="m122.75 111.72q6.178 2.2241 9.5141 7.9078 3.4597 5.5602 3.4597 14.457 0 11.862-5.8073 18.781-5.6838 6.7958-17.298 6.7958-4.5717 0-8.8963-1.3592-4.3246-1.3592-7.5372-3.5832l2.8419-8.6492q2.8419 1.7298 5.9309 2.9654 3.2126 1.2356 6.6722 1.2356 6.3016 0 9.7612-3.8304 3.5832-3.9539 3.5832-12.48t-3.9539-12.85q-3.8304-4.3246-12.356-4.3246h-3.2126v-9.0199h2.7183q7.4136 0 10.997-3.9539 3.5832-3.9539 3.5832-10.997 0-6.6722-2.8419-9.8848-2.8419-3.3361-7.5372-3.3361-3.2126 0-6.178 1.2356-2.8419 1.2356-4.9424 3.089l-4.201-7.7843q3.2126-2.9654 7.5372-4.4482 4.4482-1.4827 8.7728-1.4827 9.6377 0 14.827 6.0544 5.1895 6.0544 5.1895 16.063 0 7.0429-2.8419 11.985-2.7183 4.8188-7.7843 7.4136z"/>
        </g>
    </g>
</svg>
